M48
; DRILL file {KiCad (6.0.1-0)} date Saturday, 29 April 2023 at 18:47:09
; FORMAT={-:-/ absolute / metric / decimal}
; #@! TF.CreationDate,2023-04-29T18:47:09+02:00
; #@! TF.GenerationSoftware,Kicad,Pcbnew,(6.0.1-0)
; #@! TF.FileFunction,MixedPlating,1,2
FMAT,2
METRIC
; #@! TA.AperFunction,Plated,PTH,ViaDrill
T1C0.250
; #@! TA.AperFunction,Plated,PTH,ComponentDrill
T2C0.600
; #@! TA.AperFunction,NonPlated,NPTH,ComponentDrill
T3C0.650
%
G90
G05
T1
X154.05Y-92.75
X154.85Y-96.6
X154.95Y-100.2
X155.15Y-106.05
X155.2Y-108.25
X155.55Y-104.5
X155.65Y-102.25
X155.95Y-93.1
X155.95Y-99.25
X156.05Y-91.7
X156.4Y-109.05
X156.7Y-94.6
X156.725Y-95.8
X156.85Y-91.7
X156.9Y-108.35
X157.25Y-106.8
X157.6Y-100.0
X157.704Y-91.7
X157.95Y-102.25
X158.0Y-99.3
X158.0Y-103.4
X158.15Y-101.4
X158.5Y-106.35
X158.55Y-91.8
X158.8Y-99.65
X158.9Y-100.9
X158.9Y-103.1
X159.25Y-92.25
X159.35Y-104.2
X159.85Y-94.5
X160.05Y-95.35
X160.15Y-101.85
X160.15Y-104.2
X160.55Y-99.3
X161.05Y-103.876
X161.3Y-99.3
X161.4Y-100.9
X161.4Y-103.1
X161.593Y-91.817
X162.6Y-91.7
X162.6Y-106.45
X162.65Y-101.6
X162.65Y-104.35
X162.75Y-95.65
X162.95Y-97.7
X163.4Y-91.7
X163.55Y-109.25
X163.7Y-97.95
X163.8Y-97.1
X163.85Y-95.35
X163.95Y-112.9
X164.2Y-91.7
X164.35Y-102.85
X164.55Y-100.55
X164.75Y-104.55
X165.15Y-99.15
X166.1Y-96.5
X166.1Y-97.6
X166.4Y-110.95
X166.4Y-111.775
X166.95Y-112.95
T3
X157.26Y-89.25
X163.04Y-89.25
T2
G00X155.83Y-85.9
M15
G01X155.83Y-85.3
M16
G05
G00X155.83Y-90.33
M15
G01X155.83Y-89.23
M16
G05
G00X164.47Y-85.9
M15
G01X164.47Y-85.3
M16
G05
G00X164.47Y-90.33
M15
G01X164.47Y-89.23
M16
G05
T0
M30
