%TF.GenerationSoftware,KiCad,Pcbnew,(6.0.1-0)*%
%TF.CreationDate,2023-04-29T18:47:22+02:00*%
%TF.ProjectId,picoprobe,7069636f-7072-46f6-9265-2e6b69636164,rev?*%
%TF.SameCoordinates,Original*%
%TF.FileFunction,Legend,Bot*%
%TF.FilePolarity,Positive*%
%FSLAX46Y46*%
G04 Gerber Fmt 4.6, Leading zero omitted, Abs format (unit mm)*
G04 Created by KiCad (PCBNEW (6.0.1-0)) date 2023-04-29 18:47:22*
%MOMM*%
%LPD*%
G01*
G04 APERTURE LIST*
%ADD10C,0.100000*%
%ADD11C,0.120000*%
%ADD12C,0.150000*%
G04 APERTURE END LIST*
D10*
X164100000Y-109800000D02*
X164250000Y-109900000D01*
X156450000Y-110500000D02*
X156600000Y-110400000D01*
X156600000Y-110400000D02*
X156000000Y-110400000D01*
X161550000Y-110000000D02*
X161700000Y-109900000D01*
X156450000Y-110300000D02*
X156600000Y-110400000D01*
X161550000Y-109800000D02*
X161700000Y-109900000D01*
X164100000Y-110000000D02*
X164250000Y-109900000D01*
X161700000Y-109900000D02*
X161100000Y-109900000D01*
X164250000Y-109900000D02*
X163650000Y-109900000D01*
X161207142Y-113057142D02*
X161178571Y-112971428D01*
X161178571Y-112828571D01*
X161207142Y-112771428D01*
X161235714Y-112742857D01*
X161292857Y-112714285D01*
X161350000Y-112714285D01*
X161407142Y-112742857D01*
X161435714Y-112771428D01*
X161464285Y-112828571D01*
X161492857Y-112942857D01*
X161521428Y-113000000D01*
X161550000Y-113028571D01*
X161607142Y-113057142D01*
X161664285Y-113057142D01*
X161721428Y-113028571D01*
X161750000Y-113000000D01*
X161778571Y-112942857D01*
X161778571Y-112800000D01*
X161750000Y-112714285D01*
X161778571Y-112514285D02*
X161178571Y-112371428D01*
X161607142Y-112257142D01*
X161178571Y-112142857D01*
X161778571Y-112000000D01*
X161235714Y-111428571D02*
X161207142Y-111457142D01*
X161178571Y-111542857D01*
X161178571Y-111600000D01*
X161207142Y-111685714D01*
X161264285Y-111742857D01*
X161321428Y-111771428D01*
X161435714Y-111800000D01*
X161521428Y-111800000D01*
X161635714Y-111771428D01*
X161692857Y-111742857D01*
X161750000Y-111685714D01*
X161778571Y-111600000D01*
X161778571Y-111542857D01*
X161750000Y-111457142D01*
X161721428Y-111428571D01*
X161178571Y-110885714D02*
X161178571Y-111171428D01*
X161778571Y-111171428D01*
X161178571Y-110685714D02*
X161778571Y-110685714D01*
X161178571Y-110342857D02*
X161521428Y-110600000D01*
X161778571Y-110342857D02*
X161435714Y-110685714D01*
X165542142Y-98938428D02*
X165542142Y-98338428D01*
X165342142Y-98767000D01*
X165142142Y-98338428D01*
X165142142Y-98938428D01*
X164599285Y-98938428D02*
X164599285Y-98624142D01*
X164627857Y-98567000D01*
X164685000Y-98538428D01*
X164799285Y-98538428D01*
X164856428Y-98567000D01*
X164599285Y-98909857D02*
X164656428Y-98938428D01*
X164799285Y-98938428D01*
X164856428Y-98909857D01*
X164885000Y-98852714D01*
X164885000Y-98795571D01*
X164856428Y-98738428D01*
X164799285Y-98709857D01*
X164656428Y-98709857D01*
X164599285Y-98681285D01*
X164313571Y-98938428D02*
X164313571Y-98538428D01*
X164313571Y-98652714D02*
X164285000Y-98595571D01*
X164256428Y-98567000D01*
X164199285Y-98538428D01*
X164142142Y-98538428D01*
X164027857Y-98538428D02*
X163799285Y-98538428D01*
X163942142Y-98338428D02*
X163942142Y-98852714D01*
X163913571Y-98909857D01*
X163856428Y-98938428D01*
X163799285Y-98938428D01*
X163599285Y-98938428D02*
X163599285Y-98538428D01*
X163599285Y-98338428D02*
X163627857Y-98367000D01*
X163599285Y-98395571D01*
X163570714Y-98367000D01*
X163599285Y-98338428D01*
X163599285Y-98395571D01*
X163313571Y-98538428D02*
X163313571Y-98938428D01*
X163313571Y-98595571D02*
X163285000Y-98567000D01*
X163227857Y-98538428D01*
X163142142Y-98538428D01*
X163085000Y-98567000D01*
X163056428Y-98624142D01*
X163056428Y-98938428D01*
X162313571Y-98938428D02*
X162313571Y-98338428D01*
X161970714Y-98938428D02*
X162227857Y-98595571D01*
X161970714Y-98338428D02*
X162313571Y-98681285D01*
X161627857Y-98938428D02*
X161685000Y-98909857D01*
X161713571Y-98881285D01*
X161742142Y-98824142D01*
X161742142Y-98652714D01*
X161713571Y-98595571D01*
X161685000Y-98567000D01*
X161627857Y-98538428D01*
X161542142Y-98538428D01*
X161485000Y-98567000D01*
X161456428Y-98595571D01*
X161427857Y-98652714D01*
X161427857Y-98824142D01*
X161456428Y-98881285D01*
X161485000Y-98909857D01*
X161542142Y-98938428D01*
X161627857Y-98938428D01*
X161170714Y-98538428D02*
X161170714Y-99138428D01*
X161170714Y-98567000D02*
X161113571Y-98538428D01*
X160999285Y-98538428D01*
X160942142Y-98567000D01*
X160913571Y-98595571D01*
X160885000Y-98652714D01*
X160885000Y-98824142D01*
X160913571Y-98881285D01*
X160942142Y-98909857D01*
X160999285Y-98938428D01*
X161113571Y-98938428D01*
X161170714Y-98909857D01*
X160627857Y-98938428D02*
X160627857Y-98338428D01*
X160570714Y-98709857D02*
X160399285Y-98938428D01*
X160399285Y-98538428D02*
X160627857Y-98767000D01*
X159885000Y-98938428D02*
X159885000Y-98624142D01*
X159913571Y-98567000D01*
X159970714Y-98538428D01*
X160085000Y-98538428D01*
X160142142Y-98567000D01*
X159885000Y-98909857D02*
X159942142Y-98938428D01*
X160085000Y-98938428D01*
X160142142Y-98909857D01*
X160170714Y-98852714D01*
X160170714Y-98795571D01*
X160142142Y-98738428D01*
X160085000Y-98709857D01*
X159942142Y-98709857D01*
X159885000Y-98681285D01*
X165427857Y-99304428D02*
X165370714Y-99304428D01*
X165313571Y-99333000D01*
X165285000Y-99361571D01*
X165256428Y-99418714D01*
X165227857Y-99533000D01*
X165227857Y-99675857D01*
X165256428Y-99790142D01*
X165285000Y-99847285D01*
X165313571Y-99875857D01*
X165370714Y-99904428D01*
X165427857Y-99904428D01*
X165485000Y-99875857D01*
X165513571Y-99847285D01*
X165542142Y-99790142D01*
X165570714Y-99675857D01*
X165570714Y-99533000D01*
X165542142Y-99418714D01*
X165513571Y-99361571D01*
X165485000Y-99333000D01*
X165427857Y-99304428D01*
X164656428Y-99904428D02*
X164999285Y-99904428D01*
X164827857Y-99904428D02*
X164827857Y-99304428D01*
X164885000Y-99390142D01*
X164942142Y-99447285D01*
X164999285Y-99475857D01*
X163970714Y-99275857D02*
X164485000Y-100047285D01*
X163799285Y-99361571D02*
X163770714Y-99333000D01*
X163713571Y-99304428D01*
X163570714Y-99304428D01*
X163513571Y-99333000D01*
X163485000Y-99361571D01*
X163456428Y-99418714D01*
X163456428Y-99475857D01*
X163485000Y-99561571D01*
X163827857Y-99904428D01*
X163456428Y-99904428D01*
X163256428Y-99304428D02*
X162885000Y-99304428D01*
X163085000Y-99533000D01*
X162999285Y-99533000D01*
X162942142Y-99561571D01*
X162913571Y-99590142D01*
X162885000Y-99647285D01*
X162885000Y-99790142D01*
X162913571Y-99847285D01*
X162942142Y-99875857D01*
X162999285Y-99904428D01*
X163170714Y-99904428D01*
X163227857Y-99875857D01*
X163256428Y-99847285D01*
X154428571Y-108107142D02*
X153942857Y-108107142D01*
X153885714Y-108135714D01*
X153857142Y-108164285D01*
X153828571Y-108221428D01*
X153828571Y-108307142D01*
X153857142Y-108364285D01*
X154057142Y-108107142D02*
X154028571Y-108164285D01*
X154028571Y-108278571D01*
X154057142Y-108335714D01*
X154085714Y-108364285D01*
X154142857Y-108392857D01*
X154314285Y-108392857D01*
X154371428Y-108364285D01*
X154400000Y-108335714D01*
X154428571Y-108278571D01*
X154428571Y-108164285D01*
X154400000Y-108107142D01*
X154028571Y-107821428D02*
X154428571Y-107821428D01*
X154628571Y-107821428D02*
X154600000Y-107850000D01*
X154571428Y-107821428D01*
X154600000Y-107792857D01*
X154628571Y-107821428D01*
X154571428Y-107821428D01*
X154428571Y-107621428D02*
X154428571Y-107392857D01*
X154628571Y-107535714D02*
X154114285Y-107535714D01*
X154057142Y-107507142D01*
X154028571Y-107450000D01*
X154028571Y-107392857D01*
X154028571Y-107192857D02*
X154628571Y-107192857D01*
X154028571Y-106935714D02*
X154342857Y-106935714D01*
X154400000Y-106964285D01*
X154428571Y-107021428D01*
X154428571Y-107107142D01*
X154400000Y-107164285D01*
X154371428Y-107192857D01*
X154428571Y-106392857D02*
X154028571Y-106392857D01*
X154428571Y-106650000D02*
X154114285Y-106650000D01*
X154057142Y-106621428D01*
X154028571Y-106564285D01*
X154028571Y-106478571D01*
X154057142Y-106421428D01*
X154085714Y-106392857D01*
X154028571Y-106107142D02*
X154628571Y-106107142D01*
X154400000Y-106107142D02*
X154428571Y-106050000D01*
X154428571Y-105935714D01*
X154400000Y-105878571D01*
X154371428Y-105850000D01*
X154314285Y-105821428D01*
X154142857Y-105821428D01*
X154085714Y-105850000D01*
X154057142Y-105878571D01*
X154028571Y-105935714D01*
X154028571Y-106050000D01*
X154057142Y-106107142D01*
X154085714Y-105564285D02*
X154057142Y-105535714D01*
X154028571Y-105564285D01*
X154057142Y-105592857D01*
X154085714Y-105564285D01*
X154028571Y-105564285D01*
X154057142Y-105021428D02*
X154028571Y-105078571D01*
X154028571Y-105192857D01*
X154057142Y-105250000D01*
X154085714Y-105278571D01*
X154142857Y-105307142D01*
X154314285Y-105307142D01*
X154371428Y-105278571D01*
X154400000Y-105250000D01*
X154428571Y-105192857D01*
X154428571Y-105078571D01*
X154400000Y-105021428D01*
X154028571Y-104678571D02*
X154057142Y-104735714D01*
X154085714Y-104764285D01*
X154142857Y-104792857D01*
X154314285Y-104792857D01*
X154371428Y-104764285D01*
X154400000Y-104735714D01*
X154428571Y-104678571D01*
X154428571Y-104592857D01*
X154400000Y-104535714D01*
X154371428Y-104507142D01*
X154314285Y-104478571D01*
X154142857Y-104478571D01*
X154085714Y-104507142D01*
X154057142Y-104535714D01*
X154028571Y-104592857D01*
X154028571Y-104678571D01*
X154028571Y-104221428D02*
X154428571Y-104221428D01*
X154371428Y-104221428D02*
X154400000Y-104192857D01*
X154428571Y-104135714D01*
X154428571Y-104050000D01*
X154400000Y-103992857D01*
X154342857Y-103964285D01*
X154028571Y-103964285D01*
X154342857Y-103964285D02*
X154400000Y-103935714D01*
X154428571Y-103878571D01*
X154428571Y-103792857D01*
X154400000Y-103735714D01*
X154342857Y-103707142D01*
X154028571Y-103707142D01*
X154657142Y-102992857D02*
X153885714Y-103507142D01*
X154028571Y-102792857D02*
X154428571Y-102792857D01*
X154371428Y-102792857D02*
X154400000Y-102764285D01*
X154428571Y-102707142D01*
X154428571Y-102621428D01*
X154400000Y-102564285D01*
X154342857Y-102535714D01*
X154028571Y-102535714D01*
X154342857Y-102535714D02*
X154400000Y-102507142D01*
X154428571Y-102450000D01*
X154428571Y-102364285D01*
X154400000Y-102307142D01*
X154342857Y-102278571D01*
X154028571Y-102278571D01*
X154257142Y-101992857D02*
X154257142Y-101535714D01*
X154028571Y-101250000D02*
X154628571Y-101250000D01*
X154257142Y-101192857D02*
X154028571Y-101021428D01*
X154428571Y-101021428D02*
X154200000Y-101250000D01*
X154028571Y-100678571D02*
X154057142Y-100735714D01*
X154085714Y-100764285D01*
X154142857Y-100792857D01*
X154314285Y-100792857D01*
X154371428Y-100764285D01*
X154400000Y-100735714D01*
X154428571Y-100678571D01*
X154428571Y-100592857D01*
X154400000Y-100535714D01*
X154371428Y-100507142D01*
X154314285Y-100478571D01*
X154142857Y-100478571D01*
X154085714Y-100507142D01*
X154057142Y-100535714D01*
X154028571Y-100592857D01*
X154028571Y-100678571D01*
X154428571Y-100221428D02*
X153828571Y-100221428D01*
X154400000Y-100221428D02*
X154428571Y-100164285D01*
X154428571Y-100050000D01*
X154400000Y-99992857D01*
X154371428Y-99964285D01*
X154314285Y-99935714D01*
X154142857Y-99935714D01*
X154085714Y-99964285D01*
X154057142Y-99992857D01*
X154028571Y-100050000D01*
X154028571Y-100164285D01*
X154057142Y-100221428D01*
X154028571Y-99678571D02*
X154628571Y-99678571D01*
X154257142Y-99621428D02*
X154028571Y-99450000D01*
X154428571Y-99450000D02*
X154200000Y-99678571D01*
X154028571Y-98935714D02*
X154342857Y-98935714D01*
X154400000Y-98964285D01*
X154428571Y-99021428D01*
X154428571Y-99135714D01*
X154400000Y-99192857D01*
X154057142Y-98935714D02*
X154028571Y-98992857D01*
X154028571Y-99135714D01*
X154057142Y-99192857D01*
X154114285Y-99221428D01*
X154171428Y-99221428D01*
X154228571Y-99192857D01*
X154257142Y-99135714D01*
X154257142Y-98992857D01*
X154285714Y-98935714D01*
X156092857Y-93739285D02*
X156064285Y-93653571D01*
X156035714Y-93625000D01*
X155978571Y-93596428D01*
X155892857Y-93596428D01*
X155835714Y-93625000D01*
X155807142Y-93653571D01*
X155778571Y-93710714D01*
X155778571Y-93939285D01*
X156378571Y-93939285D01*
X156378571Y-93739285D01*
X156350000Y-93682142D01*
X156321428Y-93653571D01*
X156264285Y-93625000D01*
X156207142Y-93625000D01*
X156150000Y-93653571D01*
X156121428Y-93682142D01*
X156092857Y-93739285D01*
X156092857Y-93939285D01*
X156378571Y-93225000D02*
X156378571Y-93110714D01*
X156350000Y-93053571D01*
X156292857Y-92996428D01*
X156178571Y-92967857D01*
X155978571Y-92967857D01*
X155864285Y-92996428D01*
X155807142Y-93053571D01*
X155778571Y-93110714D01*
X155778571Y-93225000D01*
X155807142Y-93282142D01*
X155864285Y-93339285D01*
X155978571Y-93367857D01*
X156178571Y-93367857D01*
X156292857Y-93339285D01*
X156350000Y-93282142D01*
X156378571Y-93225000D01*
X156378571Y-92596428D02*
X156378571Y-92482142D01*
X156350000Y-92425000D01*
X156292857Y-92367857D01*
X156178571Y-92339285D01*
X155978571Y-92339285D01*
X155864285Y-92367857D01*
X155807142Y-92425000D01*
X155778571Y-92482142D01*
X155778571Y-92596428D01*
X155807142Y-92653571D01*
X155864285Y-92710714D01*
X155978571Y-92739285D01*
X156178571Y-92739285D01*
X156292857Y-92710714D01*
X156350000Y-92653571D01*
X156378571Y-92596428D01*
X156378571Y-92167857D02*
X156378571Y-91825000D01*
X155778571Y-91996428D02*
X156378571Y-91996428D01*
X163757142Y-112971428D02*
X163728571Y-112885714D01*
X163728571Y-112742857D01*
X163757142Y-112685714D01*
X163785714Y-112657142D01*
X163842857Y-112628571D01*
X163900000Y-112628571D01*
X163957142Y-112657142D01*
X163985714Y-112685714D01*
X164014285Y-112742857D01*
X164042857Y-112857142D01*
X164071428Y-112914285D01*
X164100000Y-112942857D01*
X164157142Y-112971428D01*
X164214285Y-112971428D01*
X164271428Y-112942857D01*
X164300000Y-112914285D01*
X164328571Y-112857142D01*
X164328571Y-112714285D01*
X164300000Y-112628571D01*
X164328571Y-112428571D02*
X163728571Y-112285714D01*
X164157142Y-112171428D01*
X163728571Y-112057142D01*
X164328571Y-111914285D01*
X163728571Y-111685714D02*
X164328571Y-111685714D01*
X164328571Y-111542857D01*
X164300000Y-111457142D01*
X164242857Y-111400000D01*
X164185714Y-111371428D01*
X164071428Y-111342857D01*
X163985714Y-111342857D01*
X163871428Y-111371428D01*
X163814285Y-111400000D01*
X163757142Y-111457142D01*
X163728571Y-111542857D01*
X163728571Y-111685714D01*
X163728571Y-111085714D02*
X164328571Y-111085714D01*
X164328571Y-110685714D02*
X164328571Y-110571428D01*
X164300000Y-110514285D01*
X164242857Y-110457142D01*
X164128571Y-110428571D01*
X163928571Y-110428571D01*
X163814285Y-110457142D01*
X163757142Y-110514285D01*
X163728571Y-110571428D01*
X163728571Y-110685714D01*
X163757142Y-110742857D01*
X163814285Y-110800000D01*
X163928571Y-110828571D01*
X164128571Y-110828571D01*
X164242857Y-110800000D01*
X164300000Y-110742857D01*
X164328571Y-110685714D01*
X156628571Y-112157142D02*
X156628571Y-111814285D01*
X156028571Y-111985714D02*
X156628571Y-111985714D01*
X156628571Y-111671428D02*
X156028571Y-111271428D01*
X156628571Y-111271428D02*
X156028571Y-111671428D01*
X165149285Y-106321428D02*
X165349285Y-106035714D01*
X165492142Y-106321428D02*
X165492142Y-105721428D01*
X165263571Y-105721428D01*
X165206428Y-105750000D01*
X165177857Y-105778571D01*
X165149285Y-105835714D01*
X165149285Y-105921428D01*
X165177857Y-105978571D01*
X165206428Y-106007142D01*
X165263571Y-106035714D01*
X165492142Y-106035714D01*
X164663571Y-106292857D02*
X164720714Y-106321428D01*
X164835000Y-106321428D01*
X164892142Y-106292857D01*
X164920714Y-106235714D01*
X164920714Y-106007142D01*
X164892142Y-105950000D01*
X164835000Y-105921428D01*
X164720714Y-105921428D01*
X164663571Y-105950000D01*
X164635000Y-106007142D01*
X164635000Y-106064285D01*
X164920714Y-106121428D01*
X164435000Y-105921428D02*
X164292142Y-106321428D01*
X164149285Y-105921428D01*
X163920714Y-106264285D02*
X163892142Y-106292857D01*
X163920714Y-106321428D01*
X163949285Y-106292857D01*
X163920714Y-106264285D01*
X163920714Y-106321428D01*
X163320714Y-106321428D02*
X163663571Y-106321428D01*
X163492142Y-106321428D02*
X163492142Y-105721428D01*
X163549285Y-105807142D01*
X163606428Y-105864285D01*
X163663571Y-105892857D01*
D11*
%TO.C,D1*%
X160750000Y-93530000D02*
X160650000Y-93530000D01*
X160750000Y-93530000D02*
X160750000Y-96330000D01*
X160750000Y-96330000D02*
X160650000Y-96330000D01*
X159050000Y-96330000D02*
X158950000Y-96330000D01*
X158950000Y-93530000D02*
X159050000Y-93530000D01*
X158950000Y-96330000D02*
X158950000Y-93530000D01*
D12*
X160925000Y-92680000D02*
G75*
G03*
X160925000Y-92680000I-75000J0D01*
G01*
D11*
%TO.C,C16*%
X156607836Y-103840000D02*
X156392164Y-103840000D01*
X156607836Y-104560000D02*
X156392164Y-104560000D01*
%TO.C,R8*%
X154350000Y-92000000D02*
X155350000Y-92000000D01*
X155350000Y-92000000D02*
X155350000Y-93900000D01*
X155350000Y-93900000D02*
X154350000Y-93900000D01*
X154350000Y-93900000D02*
X154350000Y-92000000D01*
%TO.C,R7*%
X154470000Y-95803641D02*
X154470000Y-95496359D01*
X155230000Y-95803641D02*
X155230000Y-95496359D01*
%TO.C,R2*%
X161243641Y-91530000D02*
X160936359Y-91530000D01*
X161243641Y-90770000D02*
X160936359Y-90770000D01*
%TO.C,R11*%
X164680000Y-108253641D02*
X164680000Y-107946359D01*
X163920000Y-108253641D02*
X163920000Y-107946359D01*
%TO.C,C1*%
X161390000Y-94642164D02*
X161390000Y-94857836D01*
X162110000Y-94642164D02*
X162110000Y-94857836D01*
%TO.C,R1*%
X158906359Y-91530000D02*
X159213641Y-91530000D01*
X158906359Y-90770000D02*
X159213641Y-90770000D01*
%TO.C,C15*%
X159790000Y-107192164D02*
X159790000Y-107407836D01*
X160510000Y-107192164D02*
X160510000Y-107407836D01*
%TO.C,R3*%
X159770000Y-105146359D02*
X159770000Y-105453641D01*
X160530000Y-105146359D02*
X160530000Y-105453641D01*
%TO.C,Y1*%
X157140000Y-105300000D02*
X157660000Y-105300000D01*
X155800000Y-106650000D02*
X155800000Y-106450000D01*
X157140000Y-107800000D02*
X157660000Y-107800000D01*
X159000000Y-106650000D02*
X159000000Y-106450000D01*
%TO.C,R10*%
X163080000Y-108303641D02*
X163080000Y-107996359D01*
X162320000Y-108303641D02*
X162320000Y-107996359D01*
%TO.C,F1*%
X157177500Y-95272742D02*
X157177500Y-95747258D01*
X158222500Y-95272742D02*
X158222500Y-95747258D01*
%TO.C,U1*%
X165600000Y-95600000D02*
X165600000Y-94950000D01*
X165600000Y-95600000D02*
X165600000Y-96350000D01*
X162700000Y-95650000D02*
X162700000Y-94950000D01*
X163800000Y-96350000D02*
X164500000Y-96350000D01*
X162700000Y-95650000D02*
X162700000Y-96350000D01*
X163160000Y-95350000D02*
G75*
G03*
X163160000Y-95350000I-60000J0D01*
G01*
%TO.C,FB1*%
X162046359Y-93430000D02*
X162353641Y-93430000D01*
X162046359Y-92670000D02*
X162353641Y-92670000D01*
%TO.C,C2*%
X161390000Y-96907836D02*
X161390000Y-96692164D01*
X162110000Y-96907836D02*
X162110000Y-96692164D01*
%TD*%
M02*
