%TF.GenerationSoftware,KiCad,Pcbnew,(6.0.1-0)*%
%TF.CreationDate,2023-04-29T18:47:22+02:00*%
%TF.ProjectId,picoprobe,7069636f-7072-46f6-9265-2e6b69636164,rev?*%
%TF.SameCoordinates,Original*%
%TF.FileFunction,Paste,Top*%
%TF.FilePolarity,Positive*%
%FSLAX46Y46*%
G04 Gerber Fmt 4.6, Leading zero omitted, Abs format (unit mm)*
G04 Created by KiCad (PCBNEW (6.0.1-0)) date 2023-04-29 18:47:22*
%MOMM*%
%LPD*%
G01*
G04 APERTURE LIST*
G04 Aperture macros list*
%AMRoundRect*
0 Rectangle with rounded corners*
0 $1 Rounding radius*
0 $2 $3 $4 $5 $6 $7 $8 $9 X,Y pos of 4 corners*
0 Add a 4 corners polygon primitive as box body*
4,1,4,$2,$3,$4,$5,$6,$7,$8,$9,$2,$3,0*
0 Add four circle primitives for the rounded corners*
1,1,$1+$1,$2,$3*
1,1,$1+$1,$4,$5*
1,1,$1+$1,$6,$7*
1,1,$1+$1,$8,$9*
0 Add four rect primitives between the rounded corners*
20,1,$1+$1,$2,$3,$4,$5,0*
20,1,$1+$1,$4,$5,$6,$7,0*
20,1,$1+$1,$6,$7,$8,$9,0*
20,1,$1+$1,$8,$9,$2,$3,0*%
G04 Aperture macros list end*
%ADD10RoundRect,0.135000X0.185000X-0.135000X0.185000X0.135000X-0.185000X0.135000X-0.185000X-0.135000X0*%
%ADD11RoundRect,0.140000X-0.140000X-0.170000X0.140000X-0.170000X0.140000X0.170000X-0.140000X0.170000X0*%
%ADD12RoundRect,0.140000X0.170000X-0.140000X0.170000X0.140000X-0.170000X0.140000X-0.170000X-0.140000X0*%
%ADD13RoundRect,0.135000X-0.135000X-0.185000X0.135000X-0.185000X0.135000X0.185000X-0.135000X0.185000X0*%
%ADD14RoundRect,0.020000X-0.367500X-0.080000X0.367500X-0.080000X0.367500X0.080000X-0.367500X0.080000X0*%
%ADD15RoundRect,0.020000X0.080000X-0.367500X0.080000X0.367500X-0.080000X0.367500X-0.080000X-0.367500X0*%
%ADD16RoundRect,0.096000X-1.504000X-1.504000X1.504000X-1.504000X1.504000X1.504000X-1.504000X1.504000X0*%
%ADD17RoundRect,0.218750X-0.218750X-0.256250X0.218750X-0.256250X0.218750X0.256250X-0.218750X0.256250X0*%
%ADD18RoundRect,0.140000X0.140000X0.170000X-0.140000X0.170000X-0.140000X-0.170000X0.140000X-0.170000X0*%
%ADD19R,0.600000X1.450000*%
%ADD20R,0.300000X1.450000*%
%ADD21RoundRect,0.075000X0.075000X-0.300000X0.075000X0.300000X-0.075000X0.300000X-0.075000X-0.300000X0*%
%ADD22R,1.700000X0.300000*%
%ADD23RoundRect,0.140000X-0.170000X0.140000X-0.170000X-0.140000X0.170000X-0.140000X0.170000X0.140000X0*%
G04 APERTURE END LIST*
D10*
%TO.C,R4*%
X160825000Y-94670000D03*
X160825000Y-93650000D03*
%TD*%
D11*
%TO.C,C5*%
X164620000Y-98150000D03*
X165580000Y-98150000D03*
%TD*%
%TO.C,C11*%
X164620000Y-95950000D03*
X165580000Y-95950000D03*
%TD*%
D12*
%TO.C,C3*%
X163350000Y-96780000D03*
X163350000Y-95820000D03*
%TD*%
D10*
%TO.C,R5*%
X161875000Y-94660000D03*
X161875000Y-93640000D03*
%TD*%
D12*
%TO.C,C14*%
X159525000Y-96180000D03*
X159525000Y-95220000D03*
%TD*%
D10*
%TO.C,R6*%
X154850000Y-96010000D03*
X154850000Y-94990000D03*
%TD*%
D13*
%TO.C,R9*%
X162340000Y-108050000D03*
X163360000Y-108050000D03*
%TD*%
D14*
%TO.C,U2*%
X156762500Y-99250000D03*
X156762500Y-99650000D03*
X156762500Y-100050000D03*
X156762500Y-100450000D03*
X156762500Y-100850000D03*
X156762500Y-101250000D03*
X156762500Y-101650000D03*
X156762500Y-102050000D03*
X156762500Y-102450000D03*
X156762500Y-102850000D03*
X156762500Y-103250000D03*
X156762500Y-103650000D03*
X156762500Y-104050000D03*
X156762500Y-104450000D03*
D15*
X157550000Y-105237500D03*
X157950000Y-105237500D03*
X158350000Y-105237500D03*
X158750000Y-105237500D03*
X159150000Y-105237500D03*
X159550000Y-105237500D03*
X159950000Y-105237500D03*
X160350000Y-105237500D03*
X160750000Y-105237500D03*
X161150000Y-105237500D03*
X161550000Y-105237500D03*
X161950000Y-105237500D03*
X162350000Y-105237500D03*
X162750000Y-105237500D03*
D14*
X163537500Y-104450000D03*
X163537500Y-104050000D03*
X163537500Y-103650000D03*
X163537500Y-103250000D03*
X163537500Y-102850000D03*
X163537500Y-102450000D03*
X163537500Y-102050000D03*
X163537500Y-101650000D03*
X163537500Y-101250000D03*
X163537500Y-100850000D03*
X163537500Y-100450000D03*
X163537500Y-100050000D03*
X163537500Y-99650000D03*
X163537500Y-99250000D03*
D15*
X162750000Y-98462500D03*
X162350000Y-98462500D03*
X161950000Y-98462500D03*
X161550000Y-98462500D03*
X161150000Y-98462500D03*
X160750000Y-98462500D03*
X160350000Y-98462500D03*
X159950000Y-98462500D03*
X159550000Y-98462500D03*
X159150000Y-98462500D03*
X158750000Y-98462500D03*
X158350000Y-98462500D03*
X157950000Y-98462500D03*
X157550000Y-98462500D03*
D16*
X160150000Y-101850000D03*
%TD*%
D17*
%TO.C,LED1*%
X159347500Y-108052500D03*
X160922500Y-108052500D03*
%TD*%
D12*
%TO.C,C17*%
X154850000Y-93680000D03*
X154850000Y-92720000D03*
%TD*%
D18*
%TO.C,C8*%
X159980000Y-106450000D03*
X159020000Y-106450000D03*
%TD*%
D19*
%TO.C,J1*%
X163400000Y-90695000D03*
X162600000Y-90695000D03*
D20*
X161400000Y-90695000D03*
X160400000Y-90695000D03*
X159900000Y-90695000D03*
X158900000Y-90695000D03*
D19*
X157700000Y-90695000D03*
X156900000Y-90695000D03*
X156900000Y-90695000D03*
X157700000Y-90695000D03*
D20*
X158400000Y-90695000D03*
X159400000Y-90695000D03*
X160900000Y-90695000D03*
X161900000Y-90695000D03*
D19*
X162600000Y-90695000D03*
X163400000Y-90695000D03*
%TD*%
D10*
%TO.C,R13*%
X156000000Y-107660000D03*
X156000000Y-106640000D03*
%TD*%
D21*
%TO.C,U3*%
X156000000Y-96599500D03*
X156500000Y-96599500D03*
X157000000Y-96599500D03*
X157500000Y-96599500D03*
X157500000Y-93800500D03*
X157000000Y-93800500D03*
X156500000Y-93800500D03*
X156000000Y-93800500D03*
D22*
X156750000Y-95200000D03*
%TD*%
D23*
%TO.C,C9*%
X155550000Y-99220000D03*
X155550000Y-100180000D03*
%TD*%
%TO.C,C6*%
X155550000Y-103030000D03*
X155550000Y-103990000D03*
%TD*%
D11*
%TO.C,C13*%
X161120000Y-106450000D03*
X162080000Y-106450000D03*
%TD*%
D23*
%TO.C,C7*%
X164750000Y-103030000D03*
X164750000Y-103990000D03*
%TD*%
D12*
%TO.C,C12*%
X162200000Y-96780000D03*
X162200000Y-95820000D03*
%TD*%
D10*
%TO.C,R12*%
X154400000Y-107660000D03*
X154400000Y-106640000D03*
%TD*%
D12*
%TO.C,C4*%
X160525000Y-96630000D03*
X160525000Y-95670000D03*
%TD*%
D11*
%TO.C,C10*%
X164620000Y-97050000D03*
X165580000Y-97050000D03*
%TD*%
M02*
